<svg xmlns="http://www.w3.org/2000/svg" viewBox="-18.34 -71.04 94.07 94.07" role="img" aria-label="eden mark">
  <path fill="#588AFF" d="M41.0 -28.8Q41.0 -31.1 40.35 -33.2Q39.7 -35.300000000000004 38.3 -36.900000000000006Q36.9 -38.5 34.75 -39.45Q32.6 -40.400000000000006 29.700000000000003 -40.400000000000006Q24.3 -40.400000000000006 20.55 -37.150000000000006Q16.8 -33.9 16.400000000000002 -28.8ZM53.0 -23.400000000000002Q53.0 -22.6 53.0 -21.8Q53.0 -21.0 52.900000000000006 -20.200000000000003H16.400000000000002Q16.6 -17.6 17.75 -15.450000000000001Q18.900000000000002 -13.3 20.800000000000004 -11.75Q22.700000000000003 -10.200000000000001 25.1 -9.3Q27.5 -8.4 30.1 -8.4Q34.6 -8.4 37.7 -10.05Q40.800000000000004 -11.700000000000001 42.800000000000004 -14.600000000000001L50.800000000000004 -8.200000000000001Q43.7 1.4000000000000001 30.200000000000003 1.4000000000000001Q24.6 1.4000000000000001 19.900000000000002 -0.35Q15.200000000000001 -2.1 11.75 -5.3Q8.3 -8.5 6.3500000000000005 -13.15Q4.4 -17.8 4.4 -23.700000000000003Q4.4 -29.5 6.3500000000000005 -34.25Q8.3 -39.0 11.700000000000001 -42.35Q15.100000000000001 -45.7 19.75 -47.550000000000004Q24.400000000000002 -49.400000000000006 29.8 -49.400000000000006Q34.800000000000004 -49.400000000000006 39.050000000000004 -47.75Q43.300000000000004 -46.1 46.400000000000006 -42.85Q49.5 -39.6 51.25 -34.75Q53.0 -29.900000000000002 53.0 -23.400000000000002Z"/>
</svg>
