<svg xmlns="http://www.w3.org/2000/svg" viewBox="1.40 -80.60 220.70 87.00" role="img" aria-label="eden">
  <path fill="#588AFF" d="M41.0 -28.8Q41.0 -31.1 40.35 -33.2Q39.7 -35.300000000000004 38.3 -36.900000000000006Q36.9 -38.5 34.75 -39.45Q32.6 -40.400000000000006 29.700000000000003 -40.400000000000006Q24.3 -40.400000000000006 20.55 -37.150000000000006Q16.8 -33.9 16.400000000000002 -28.8ZM53.0 -23.400000000000002Q53.0 -22.6 53.0 -21.8Q53.0 -21.0 52.900000000000006 -20.200000000000003H16.400000000000002Q16.6 -17.6 17.75 -15.450000000000001Q18.900000000000002 -13.3 20.800000000000004 -11.75Q22.700000000000003 -10.200000000000001 25.1 -9.3Q27.5 -8.4 30.1 -8.4Q34.6 -8.4 37.7 -10.05Q40.800000000000004 -11.700000000000001 42.800000000000004 -14.600000000000001L50.800000000000004 -8.200000000000001Q43.7 1.4000000000000001 30.200000000000003 1.4000000000000001Q24.6 1.4000000000000001 19.900000000000002 -0.35Q15.200000000000001 -2.1 11.75 -5.3Q8.3 -8.5 6.3500000000000005 -13.15Q4.4 -17.8 4.4 -23.700000000000003Q4.4 -29.5 6.3500000000000005 -34.25Q8.3 -39.0 11.700000000000001 -42.35Q15.100000000000001 -45.7 19.75 -47.550000000000004Q24.400000000000002 -49.400000000000006 29.8 -49.400000000000006Q34.800000000000004 -49.400000000000006 39.050000000000004 -47.75Q43.300000000000004 -46.1 46.400000000000006 -42.85Q49.5 -39.6 51.25 -34.75Q53.0 -29.900000000000002 53.0 -23.400000000000002Z"/>
  <path fill="#FAF8F4" d="M109.9 0.0H98.5V-7.2H98.30000000000001Q95.80000000000001 -3.0 91.35000000000001 -0.7999999999999999Q86.9 1.4000000000000001 81.80000000000001 1.4000000000000001Q76.30000000000001 1.4000000000000001 71.95000000000002 -0.65Q67.60000000000001 -2.7 64.55000000000001 -6.15Q61.50000000000001 -9.600000000000001 59.85000000000001 -14.250000000000002Q58.2 -18.900000000000002 58.2 -24.200000000000003Q58.2 -29.5 59.900000000000006 -34.1Q61.60000000000001 -38.7 64.70000000000002 -42.1Q67.80000000000001 -45.5 72.10000000000001 -47.45Q76.4 -49.400000000000006 81.5 -49.400000000000006Q84.80000000000001 -49.400000000000006 87.4 -48.650000000000006Q90.0 -47.900000000000006 91.95 -46.800000000000004Q93.9 -45.7 95.30000000000001 -44.400000000000006Q96.70000000000002 -43.1 97.60000000000001 -41.900000000000006H97.9V-75.60000000000001H109.9ZM70.4 -24.200000000000003Q70.4 -21.400000000000002 71.25 -18.6Q72.10000000000001 -15.8 73.80000000000001 -13.600000000000001Q75.5 -11.4 78.1 -10.0Q80.7 -8.6 84.2 -8.6Q87.5 -8.6 90.10000000000001 -9.95Q92.70000000000002 -11.3 94.55000000000001 -13.5Q96.4 -15.700000000000001 97.35000000000001 -18.450000000000003Q98.30000000000001 -21.200000000000003 98.30000000000001 -24.0Q98.30000000000001 -26.8 97.35000000000001 -29.6Q96.4 -32.4 94.55000000000001 -34.6Q92.70000000000002 -36.800000000000004 90.10000000000001 -38.2Q87.5 -39.6 84.2 -39.6Q80.7 -39.6 78.1 -38.25Q75.5 -36.9 73.80000000000001 -34.7Q72.10000000000001 -32.5 71.25 -29.75Q70.4 -27.0 70.4 -24.200000000000003Z"/>
  <path fill="#FAF8F4" d="M154.8 -28.8Q154.8 -31.1 154.15 -33.2Q153.5 -35.300000000000004 152.10000000000002 -36.900000000000006Q150.70000000000002 -38.5 148.55 -39.45Q146.4 -40.400000000000006 143.5 -40.400000000000006Q138.10000000000002 -40.400000000000006 134.35000000000002 -37.150000000000006Q130.60000000000002 -33.9 130.20000000000002 -28.8ZM166.8 -23.400000000000002Q166.8 -22.6 166.8 -21.8Q166.8 -21.0 166.70000000000002 -20.200000000000003H130.20000000000002Q130.4 -17.6 131.55 -15.450000000000001Q132.70000000000002 -13.3 134.60000000000002 -11.75Q136.5 -10.200000000000001 138.9 -9.3Q141.3 -8.4 143.9 -8.4Q148.4 -8.4 151.5 -10.05Q154.60000000000002 -11.700000000000001 156.60000000000002 -14.600000000000001L164.60000000000002 -8.200000000000001Q157.5 1.4000000000000001 144.0 1.4000000000000001Q138.4 1.4000000000000001 133.7 -0.35Q129.0 -2.1 125.55000000000001 -5.3Q122.10000000000001 -8.5 120.15 -13.15Q118.20000000000002 -17.8 118.20000000000002 -23.700000000000003Q118.20000000000002 -29.5 120.15 -34.25Q122.10000000000001 -39.0 125.5 -42.35Q128.9 -45.7 133.55 -47.550000000000004Q138.20000000000002 -49.400000000000006 143.60000000000002 -49.400000000000006Q148.60000000000002 -49.400000000000006 152.85000000000002 -47.75Q157.10000000000002 -46.1 160.20000000000002 -42.85Q163.3 -39.6 165.05 -34.75Q166.8 -29.900000000000002 166.8 -23.400000000000002Z"/>
  <path fill="#FAF8F4" d="M174.9 -48.0H186.3V-40.300000000000004H186.50000000000003Q188.10000000000002 -43.900000000000006 192.05 -46.650000000000006Q196.00000000000003 -49.400000000000006 201.40000000000003 -49.400000000000006Q206.10000000000002 -49.400000000000006 209.45000000000002 -47.75Q212.8 -46.1 214.95000000000002 -43.400000000000006Q217.10000000000002 -40.7 218.10000000000002 -37.2Q219.10000000000002 -33.7 219.10000000000002 -30.0V0.0H207.10000000000002V-26.6Q207.10000000000002 -28.700000000000003 206.8 -31.000000000000004Q206.50000000000003 -33.300000000000004 205.50000000000003 -35.150000000000006Q204.50000000000003 -37.0 202.75000000000003 -38.2Q201.00000000000003 -39.400000000000006 198.10000000000002 -39.400000000000006Q195.20000000000002 -39.400000000000006 193.10000000000002 -38.25Q191.00000000000003 -37.1 189.65000000000003 -35.3Q188.3 -33.5 187.60000000000002 -31.15Q186.90000000000003 -28.8 186.90000000000003 -26.400000000000002V0.0H174.9Z"/>
</svg>
